<svg width="24" height="24" viewBox="0 0 24 24" fill="none" xmlns="http://www.w3.org/2000/svg">
<path d="M23.2494 12.0007C23.2541 13.7868 22.6747 15.5255 21.5994 16.9517C21.5402 17.0305 21.4661 17.0968 21.3812 17.147C21.2963 17.1971 21.2024 17.23 21.1048 17.2439C21.0072 17.2577 20.9079 17.2522 20.8124 17.2276C20.717 17.2031 20.6273 17.1599 20.5485 17.1007C20.4697 17.0415 20.4033 16.9674 20.3532 16.8825C20.3031 16.7976 20.2701 16.7037 20.2563 16.6061C20.2425 16.5085 20.248 16.4092 20.2725 16.3137C20.2971 16.2183 20.3402 16.1286 20.3994 16.0498C21.2796 14.8838 21.7537 13.4616 21.7494 12.0007C21.7494 10.2105 21.0383 8.49363 19.7724 7.22776C18.5065 5.96189 16.7896 5.25073 14.9994 5.25073C13.2092 5.25073 11.4923 5.96189 10.2265 7.22776C8.96058 8.49363 8.24943 10.2105 8.24943 12.0007C8.24943 12.1996 8.17041 12.3904 8.02976 12.5311C7.8891 12.6717 7.69834 12.7507 7.49943 12.7507C7.30051 12.7507 7.10975 12.6717 6.9691 12.5311C6.82844 12.3904 6.74943 12.1996 6.74943 12.0007C6.74906 11.2439 6.85284 10.4905 7.05786 9.76198C6.95568 9.75073 6.85255 9.75073 6.74943 9.75073C5.55595 9.75073 4.41136 10.2248 3.56745 11.0687C2.72353 11.9127 2.24943 13.0573 2.24943 14.2507C2.24943 15.4442 2.72353 16.5888 3.56745 17.4327C4.41136 18.2766 5.55595 18.7507 6.74943 18.7507H8.99943C9.19834 18.7507 9.3891 18.8297 9.52976 18.9704C9.67041 19.1111 9.74943 19.3018 9.74943 19.5007C9.74943 19.6996 9.67041 19.8904 9.52976 20.0311C9.3891 20.1717 9.19834 20.2507 8.99943 20.2507H6.74943C5.92459 20.2509 5.10857 20.081 4.35234 19.7517C3.59611 19.4223 2.91591 18.9406 2.35421 18.3366C1.79252 17.7326 1.3614 17.0192 1.08779 16.2411C0.814169 15.4629 0.703931 14.6367 0.763956 13.8141C0.823981 12.9914 1.05298 12.19 1.43665 11.4598C1.82032 10.7297 2.35042 10.0864 2.99385 9.57035C3.63727 9.05425 4.3802 8.67635 5.17623 8.46027C5.97226 8.24419 6.80429 8.19456 7.62036 8.31448C8.45136 6.65244 9.81912 5.31961 11.5021 4.53188C13.1851 3.74416 15.0847 3.54766 16.8933 3.97423C18.7019 4.4008 20.3135 5.42545 21.4671 6.88221C22.6207 8.33897 23.2487 10.1425 23.2494 12.0007ZM16.7188 15.9701L14.9994 17.6904V12.0007C14.9994 11.8018 14.9204 11.6111 14.7798 11.4704C14.6391 11.3297 14.4483 11.2507 14.2494 11.2507C14.0505 11.2507 13.8597 11.3297 13.7191 11.4704C13.5784 11.6111 13.4994 11.8018 13.4994 12.0007V17.6904L11.7801 15.9701C11.6393 15.8294 11.4484 15.7503 11.2494 15.7503C11.0504 15.7503 10.8595 15.8294 10.7188 15.9701C10.5781 16.1108 10.499 16.3017 10.499 16.5007C10.499 16.6998 10.5781 16.8906 10.7188 17.0314L13.7188 20.0314C13.7885 20.1011 13.8712 20.1564 13.9622 20.1941C14.0533 20.2319 14.1509 20.2513 14.2494 20.2513C14.348 20.2513 14.4456 20.2319 14.5366 20.1941C14.6277 20.1564 14.7104 20.1011 14.7801 20.0314L17.7801 17.0314C17.9208 16.8906 17.9998 16.6998 17.9998 16.5007C17.9998 16.3017 17.9208 16.1108 17.7801 15.9701C17.6393 15.8294 17.4485 15.7503 17.2494 15.7503C17.0504 15.7503 16.8595 15.8294 16.7188 15.9701Z" fill="black"/>
</svg>
