<svg width="24" height="42" viewBox="0 0 24 42" fill="none" xmlns="http://www.w3.org/2000/svg">
<g clip-path="url(#clip0_5331_17449)">
<path fill-rule="evenodd" clip-rule="evenodd" d="M12 31C17.5228 31 22 26.5228 22 21C22 15.4772 17.5228 11 12 11C6.47715 11 2 15.4772 2 21C2 26.5228 6.47715 31 12 31ZM16.8839 19.8839C17.372 19.3957 17.372 18.6043 16.8839 18.1161C16.3957 17.628 15.6043 17.628 15.1161 18.1161L11 22.2322L8.88388 20.1161C8.39573 19.628 7.60427 19.628 7.11612 20.1161C6.62796 20.6043 6.62796 21.3957 7.11612 21.8839L10.1161 24.8839C10.6043 25.372 11.3957 25.372 11.8839 24.8839L16.8839 19.8839Z" fill="white"/>
<path fill-rule="evenodd" clip-rule="evenodd" d="M12 31C17.5228 31 22 26.5228 22 21C22 15.4772 17.5228 11 12 11C6.47715 11 2 15.4772 2 21C2 26.5228 6.47715 31 12 31ZM16.8839 19.8839C17.372 19.3957 17.372 18.6043 16.8839 18.1161C16.3957 17.628 15.6043 17.628 15.1161 18.1161L11 22.2322L8.88388 20.1161C8.39573 19.628 7.60427 19.628 7.11612 20.1161C6.62796 20.6043 6.62796 21.3957 7.11612 21.8839L10.1161 24.8839C10.6043 25.372 11.3957 25.372 11.8839 24.8839L16.8839 19.8839Z" fill="white"/>
</g>
<defs>
<clipPath id="clip0_5331_17449">
<rect width="20" height="20" fill="white" transform="translate(2 11)"/>
</clipPath>
</defs>
</svg>
