<svg width="19" height="22" viewBox="0 0 19 22" fill="none" xmlns="http://www.w3.org/2000/svg">
<g filter="url(#filter0_d_7460_21016)">
<path d="M15 9.99982C15.0004 10.1696 14.9569 10.3366 14.8736 10.4845C14.7904 10.6325 14.6703 10.7564 14.525 10.8442L5.52 16.3529C5.36818 16.4459 5.19429 16.4967 5.0163 16.5C4.83831 16.5033 4.66266 16.459 4.5075 16.3717C4.35382 16.2858 4.2258 16.1605 4.1366 16.0087C4.04741 15.8568 4.00026 15.684 4 15.5079V4.4917C4.00026 4.31563 4.04741 4.1428 4.1366 3.99099C4.2258 3.83919 4.35382 3.71388 4.5075 3.62795C4.66266 3.54067 4.83831 3.49639 5.0163 3.49968C5.19429 3.50298 5.36818 3.55373 5.52 3.6467L14.525 9.15545C14.6703 9.24324 14.7904 9.36715 14.8736 9.51511C14.9569 9.66307 15.0004 9.83006 15 9.99982Z" fill="white"/>
</g>
<defs>
<filter id="filter0_d_7460_21016" x="-4" y="-1" width="24" height="24" filterUnits="userSpaceOnUse" color-interpolation-filters="sRGB">
<feFlood flood-opacity="0" result="BackgroundImageFix"/>
<feColorMatrix in="SourceAlpha" type="matrix" values="0 0 0 0 0 0 0 0 0 0 0 0 0 0 0 0 0 0 127 0" result="hardAlpha"/>
<feOffset dy="1"/>
<feGaussianBlur stdDeviation="2"/>
<feColorMatrix type="matrix" values="0 0 0 0 0 0 0 0 0 0 0 0 0 0 0 0 0 0 0.2 0"/>
<feBlend mode="normal" in2="BackgroundImageFix" result="effect1_dropShadow_7460_21016"/>
<feBlend mode="normal" in="SourceGraphic" in2="effect1_dropShadow_7460_21016" result="shape"/>
</filter>
</defs>
</svg>
