<svg width="65" height="64" viewBox="0 0 65 64" fill="none" xmlns="http://www.w3.org/2000/svg">
<rect x="0.5" width="64" height="64" rx="32" fill="#FF9500"/>
<path d="M47.125 29.83C46.9394 29.5727 46.6952 29.3632 46.4127 29.2189C46.1301 29.0746 45.8173 28.9995 45.5 29H43.5V27C43.5 26.4696 43.2893 25.9609 42.9142 25.5858C42.5391 25.2107 42.0304 25 41.5 25H32.8337L29.3675 22.4C29.0207 22.1415 28.6 22.0013 28.1675 22H21.5C20.9696 22 20.4609 22.2107 20.0858 22.5858C19.7107 22.9609 19.5 23.4696 19.5 24V42C19.5 42.2652 19.6054 42.5196 19.7929 42.7071C19.9804 42.8946 20.2348 43 20.5 43H42.8875C43.0974 43 43.302 42.934 43.4722 42.8113C43.6425 42.6886 43.7699 42.5154 43.8363 42.3162L47.3975 31.6325C47.4976 31.3319 47.5252 31.0118 47.4778 30.6985C47.4304 30.3852 47.3095 30.0876 47.125 29.83ZM28.1675 24L31.6337 26.6C31.9804 26.8587 32.4012 26.9989 32.8337 27H41.5V29H34.8037C34.4087 29 34.0224 29.117 33.6938 29.3363L31.1938 31H25.1775C24.7774 30.9989 24.3863 31.1182 24.055 31.3425C23.7237 31.5668 23.4676 31.8856 23.32 32.2575L21.5 36.8075V24H28.1675Z" fill="white"/>
</svg>
