<svg width="40" height="40" viewBox="0 0 40 40" fill="none" xmlns="http://www.w3.org/2000/svg">
<rect width="40" height="40" rx="20" fill="#AF52DE" fill-opacity="0.1"/>
<path opacity="0.2" d="M27.5 26H12.5C12.3687 25.9992 12.24 25.964 12.1266 25.8978C12.0132 25.8317 11.9192 25.7369 11.8539 25.6231C11.7886 25.5092 11.7543 25.3801 11.7545 25.2489C11.7547 25.1176 11.7894 24.9887 11.855 24.875C12.4728 23.8062 13.25 21.8572 13.25 18.5C13.25 16.7098 13.9612 14.9929 15.227 13.727C16.4929 12.4612 18.2098 11.75 20 11.75C21.7902 11.75 23.5071 12.4612 24.773 13.727C26.0388 14.9929 26.75 16.7098 26.75 18.5C26.75 21.8581 27.5281 23.8062 28.1469 24.875C28.2126 24.9888 28.2472 25.1179 28.2474 25.2493C28.2475 25.3808 28.2131 25.5099 28.1475 25.6239C28.082 25.7378 27.9877 25.8325 27.8741 25.8985C27.7604 25.9645 27.6314 25.9995 27.5 26Z" fill="#AF52DE"/>
<path d="M29 14.6656C28.8235 14.7571 28.6178 14.7747 28.4283 14.7145C28.2388 14.6544 28.0809 14.5215 27.9894 14.345C27.2735 12.9308 26.1899 11.7355 24.8525 10.8847C24.7692 10.8321 24.697 10.7637 24.6401 10.6832C24.5832 10.6027 24.5427 10.5119 24.521 10.4158C24.4992 10.3196 24.4966 10.2202 24.5132 10.1231C24.5299 10.0259 24.5656 9.93306 24.6181 9.84971C24.6707 9.76636 24.7392 9.69418 24.8196 9.6373C24.9001 9.58041 24.991 9.53993 25.0871 9.51817C25.1832 9.4964 25.2826 9.49378 25.3798 9.51045C25.4769 9.52713 25.5698 9.56276 25.6531 9.61533C27.2118 10.6133 28.4775 12.0074 29.3206 13.655C29.4121 13.8316 29.4296 14.0372 29.3695 14.2267C29.3094 14.4162 29.1765 14.5741 29 14.6656ZM11.3478 14.75C11.4852 14.75 11.62 14.7122 11.7373 14.6407C11.8547 14.5693 11.9502 14.467 12.0134 14.345C12.7293 12.9308 13.8129 11.7355 15.1503 10.8847C15.3186 10.7785 15.4379 10.6099 15.4819 10.4158C15.5258 10.2217 15.4909 10.018 15.3847 9.84971C15.2785 9.68138 15.1098 9.56212 14.9157 9.51817C14.7216 9.47421 14.518 9.50916 14.3497 9.61533C12.791 10.6133 11.5254 12.0074 10.6822 13.655C10.623 13.7693 10.5942 13.8969 10.5986 14.0256C10.603 14.1542 10.6404 14.2796 10.7072 14.3896C10.7741 14.4996 10.8682 14.5905 10.9804 14.6537C11.0925 14.7168 11.2191 14.75 11.3478 14.75ZM28.7947 24.4944C28.9276 24.7222 28.998 24.9811 28.9989 25.2449C28.9998 25.5086 28.9312 25.768 28.7998 25.9967C28.6685 26.2255 28.4792 26.4156 28.251 26.5478C28.0228 26.6801 27.7638 26.7498 27.5 26.75H23.675C23.5029 27.5977 23.043 28.3599 22.3732 28.9073C21.7034 29.4547 20.865 29.7538 20 29.7538C19.135 29.7538 18.2966 29.4547 17.6268 28.9073C16.9571 28.3599 16.4971 27.5977 16.325 26.75H12.5C12.2364 26.7495 11.9776 26.6795 11.7496 26.5471C11.5217 26.4147 11.3326 26.2246 11.2016 25.9959C11.0705 25.7672 11.002 25.508 11.003 25.2444C11.004 24.9808 11.0744 24.7221 11.2072 24.4944C12.0519 23.0366 12.5 20.9638 12.5 18.5C12.5 16.5109 13.2902 14.6032 14.6967 13.1967C16.1032 11.7902 18.0109 11 20 11C21.9891 11 23.8968 11.7902 25.3033 13.1967C26.7098 14.6032 27.5 16.5109 27.5 18.5C27.5 20.9628 27.9481 23.0356 28.7947 24.4944ZM22.1206 26.75H17.8794C18.0348 27.1882 18.3221 27.5675 18.7018 27.8358C19.0816 28.104 19.5351 28.2481 20 28.2481C20.4649 28.2481 20.9185 28.104 21.2982 27.8358C21.6779 27.5675 21.9652 27.1882 22.1206 26.75ZM27.5 25.25C26.5025 23.5372 26 21.2666 26 18.5C26 16.9087 25.3679 15.3826 24.2426 14.2574C23.1174 13.1322 21.5913 12.5 20 12.5C18.4087 12.5 16.8826 13.1322 15.7574 14.2574C14.6321 15.3826 14 16.9087 14 18.5C14 21.2675 13.4956 23.5381 12.5 25.25H27.5Z" fill="#AF52DE"/>
</svg>
