<svg width="24" height="24" viewBox="0 0 24 24" fill="none" xmlns="http://www.w3.org/2000/svg">
<path d="M21.9842 10.7229L21.4939 11.1561C21.4215 11.2294 21.3348 11.287 21.2391 11.3254C21.1435 11.3637 21.041 11.3819 20.938 11.3789C20.835 11.3758 20.7337 11.3516 20.6405 11.3077C20.5473 11.2637 20.4641 11.2011 20.3962 11.1236C20.3282 11.0461 20.277 10.9555 20.2457 10.8573C20.2143 10.7591 20.2035 10.6556 20.214 10.5531C20.2245 10.4505 20.2559 10.3513 20.3065 10.2615C20.357 10.1717 20.4255 10.0932 20.5077 10.0311L20.998 9.60263C20.998 9.60263 20.998 9.60262 20.998 9.59606L20.1852 9.52575C20.0867 9.51732 19.9908 9.48957 19.903 9.44409C19.8153 9.3986 19.7373 9.33628 19.6736 9.26067C19.61 9.18506 19.5618 9.09765 19.5319 9.00343C19.502 8.90921 19.4909 8.81002 19.4994 8.71153C19.5078 8.61304 19.5356 8.51717 19.581 8.42941C19.6265 8.34164 19.6888 8.26369 19.7645 8.20001C19.8401 8.13633 19.9275 8.08817 20.0217 8.05827C20.1159 8.02837 20.2151 8.01732 20.3136 8.02575L21.1292 8.09606C21.4238 8.12062 21.7045 8.23165 21.9362 8.41521C22.1678 8.59878 22.3401 8.84669 22.4313 9.12783C22.5226 9.40897 22.5287 9.7108 22.449 9.99543C22.3693 10.28 22.2073 10.5348 21.9833 10.7276L21.9842 10.7229ZM16.2936 14.7542L16.5617 15.9176C16.5839 16.0136 16.6247 16.1043 16.6819 16.1844C16.7391 16.2646 16.8116 16.3328 16.8951 16.3849C16.9786 16.4371 17.0716 16.4724 17.1687 16.4886C17.2659 16.5049 17.3653 16.5018 17.4612 16.4797C17.5572 16.4575 17.6479 16.4166 17.7281 16.3595C17.8082 16.3023 17.8764 16.2298 17.9286 16.1463C17.9807 16.0628 18.016 15.9698 18.0322 15.8726C18.0485 15.7755 18.0454 15.6761 18.0233 15.5801L17.7561 14.4111L18.493 13.7679C18.6429 13.6372 18.7347 13.4522 18.7483 13.2537C18.7618 13.0552 18.6959 12.8594 18.5652 12.7095C18.4344 12.5596 18.2494 12.4677 18.0509 12.4542C17.8524 12.4407 17.6566 12.5065 17.5067 12.6373L16.7698 13.2814C16.5637 13.4605 16.4105 13.6926 16.3265 13.9525C16.2426 14.2123 16.2312 14.4902 16.2936 14.7561V14.7542ZM12.7498 4.79513V17.3258L12.7752 17.3398L13.8889 18.0167C14.059 18.1199 14.1811 18.2864 14.2284 18.4796C14.2757 18.6728 14.2443 18.8769 14.1411 19.047C14.0379 19.2171 13.8714 19.3392 13.6782 19.3865C13.4849 19.4338 13.2808 19.4024 13.1108 19.2992L11.9998 18.6223L7.21859 21.5286C6.966 21.6808 6.67414 21.7552 6.3795 21.7424C6.08486 21.7297 5.80052 21.6304 5.56202 21.4569C5.32352 21.2834 5.14145 21.0435 5.03857 20.7671C4.93569 20.4907 4.91657 20.1901 4.98359 19.9029L6.24453 14.4186L2.01547 10.7229C1.79147 10.5301 1.62944 10.2754 1.54972 9.99074C1.47001 9.70612 1.47616 9.40429 1.5674 9.12315C1.65864 8.84201 1.83091 8.59409 2.06258 8.41053C2.29424 8.22696 2.57497 8.11593 2.86953 8.09137L8.4439 7.6095L10.6198 2.4195C10.7335 2.14717 10.9251 1.91455 11.1707 1.75093C11.4163 1.58731 11.7048 1.5 11.9998 1.5C12.2949 1.5 12.5834 1.58731 12.829 1.75093C13.0745 1.91455 13.2662 2.14717 13.3798 2.4195L15.5623 7.6095L16.5692 7.69669C16.7681 7.71384 16.9521 7.80932 17.0806 7.9621C17.2091 8.11488 17.2717 8.31246 17.2545 8.51138C17.2374 8.71029 17.1419 8.89424 16.9891 9.02276C16.8363 9.15128 16.6388 9.21384 16.4398 9.19669L15.4311 9.1095C15.159 9.08552 14.8987 8.98771 14.6781 8.82663C14.4576 8.66555 14.2852 8.4473 14.1795 8.19544L12.7498 4.79513ZM11.2245 17.3436L11.2498 17.3295V4.79513L9.82484 8.19075C9.71921 8.44262 9.54681 8.66086 9.32625 8.82194C9.1057 8.98303 8.84534 9.08083 8.57328 9.10481L2.99984 9.58575C2.99957 9.58887 2.99957 9.59201 2.99984 9.59513L7.23078 13.2833C7.43639 13.4624 7.58929 13.6941 7.67304 13.9536C7.75679 14.2131 7.76822 14.4906 7.70609 14.7561L6.43859 20.2442L11.2245 17.3436ZM18.7161 18.5858C18.6939 18.4898 18.653 18.3991 18.5957 18.319C18.5385 18.2388 18.466 18.1707 18.3824 18.1186C18.2988 18.0664 18.2058 18.0313 18.1086 18.0151C18.0115 17.9989 17.9121 18.002 17.8161 18.0242C17.7201 18.0464 17.6295 18.0873 17.5493 18.1446C17.4692 18.2018 17.4011 18.2743 17.3489 18.3579C17.2968 18.4415 17.2616 18.5345 17.2454 18.6316C17.2292 18.7288 17.2323 18.8282 17.2545 18.9242L17.5639 20.2498L16.5148 19.6123C16.4306 19.5612 16.3372 19.5271 16.2398 19.5121C16.1424 19.497 16.043 19.5013 15.9473 19.5247C15.8516 19.5481 15.7614 19.5901 15.6819 19.6483C15.6025 19.7065 15.5352 19.7798 15.4841 19.864C15.4329 19.9482 15.3988 20.0417 15.3838 20.1391C15.3688 20.2365 15.3731 20.3358 15.3964 20.4316C15.4198 20.5273 15.4618 20.6174 15.52 20.6969C15.5783 20.7764 15.6516 20.8437 15.7358 20.8948L16.7886 21.5342C17.0412 21.6864 17.333 21.7608 17.6277 21.7481C17.9223 21.7353 18.2067 21.636 18.4452 21.4625C18.6837 21.289 18.8657 21.0491 18.9686 20.7727C19.0715 20.4963 19.0906 20.1958 19.0236 19.9086L18.7161 18.5858Z" fill="black"/>
</svg>
