<svg width="65" height="64" viewBox="0 0 65 64" fill="none" xmlns="http://www.w3.org/2000/svg">
<rect x="0.5" width="64" height="64" rx="32" fill="#007AFF"/>
<path d="M42.5 23H39.035L37.3312 20.445C37.24 20.3082 37.1164 20.196 36.9714 20.1184C36.8264 20.0408 36.6645 20.0001 36.5 20H28.5C28.3355 20.0001 28.1736 20.0408 28.0286 20.1184C27.8836 20.196 27.76 20.3082 27.6687 20.445L25.9637 23H22.5C21.7044 23 20.9413 23.3161 20.3787 23.8787C19.8161 24.4413 19.5 25.2044 19.5 26V40C19.5 40.7956 19.8161 41.5587 20.3787 42.1213C20.9413 42.6839 21.7044 43 22.5 43H42.5C43.2956 43 44.0587 42.6839 44.6213 42.1213C45.1839 41.5587 45.5 40.7956 45.5 40V26C45.5 25.2044 45.1839 24.4413 44.6213 23.8787C44.0587 23.3161 43.2956 23 42.5 23ZM37 32.5C37 33.39 36.7361 34.26 36.2416 35.0001C35.7471 35.7401 35.0443 36.3169 34.2221 36.6575C33.3998 36.9981 32.495 37.0872 31.6221 36.9135C30.7492 36.7399 29.9474 36.3113 29.318 35.682C28.6887 35.0526 28.2601 34.2508 28.0865 33.3779C27.9128 32.505 28.0019 31.6002 28.3425 30.7779C28.6831 29.9557 29.2599 29.2529 29.9999 28.7584C30.74 28.2639 31.61 28 32.5 28C33.6935 28 34.8381 28.4741 35.682 29.318C36.5259 30.1619 37 31.3065 37 32.5Z" fill="white"/>
</svg>
