<svg width="65" height="64" viewBox="0 0 65 64" fill="none" xmlns="http://www.w3.org/2000/svg">
<rect x="0.5" width="64" height="64" rx="32" fill="#007AFF"/>
<path d="M40.5 25V39C40.5 39.5304 40.2893 40.0391 39.9142 40.4142C39.5391 40.7893 39.0304 41 38.5 41H20.5C19.9696 41 19.4609 40.7893 19.0858 40.4142C18.7107 40.0391 18.5 39.5304 18.5 39V25C18.5 24.4696 18.7107 23.9609 19.0858 23.5858C19.4609 23.2107 19.9696 23 20.5 23H38.5C39.0304 23 39.5391 23.2107 39.9142 23.5858C40.2893 23.9609 40.5 24.4696 40.5 25ZM47.75 25.0312C47.6089 24.9967 47.4621 24.9925 47.3193 25.0188C47.1765 25.045 47.0408 25.1013 46.9212 25.1838L42.7225 27.9825C42.654 28.0282 42.5979 28.0901 42.559 28.1627C42.5202 28.2353 42.4999 28.3164 42.5 28.3988V35.6012C42.4999 35.6836 42.5202 35.7647 42.559 35.8373C42.5979 35.9099 42.654 35.9718 42.7225 36.0175L46.945 38.8325C47.103 38.9379 47.2879 38.9962 47.4778 39.0004C47.6677 39.0046 47.8549 38.9546 48.0175 38.8563C48.1679 38.7606 48.2912 38.628 48.3757 38.4711C48.4602 38.3142 48.503 38.1382 48.5 37.96V26C48.5001 25.7782 48.4265 25.5627 48.2907 25.3873C48.155 25.212 47.9647 25.0867 47.75 25.0312Z" fill="white"/>
</svg>
